<svg width="24" height="24" viewBox="0 0 24 24" fill="none" xmlns="http://www.w3.org/2000/svg">
<mask id="mask0_1339_19452" style="mask-type:alpha" maskUnits="userSpaceOnUse" x="0" y="0" width="24" height="24">
<rect width="24" height="24" fill="#D9D9D9"/>
</mask>
<g mask="url(#mask0_1339_19452)">
<path d="M11.3476 15.0246C11.2271 15.0246 11.115 15.0054 11.0111 14.9669C10.9073 14.9286 10.8086 14.8626 10.7149 14.7689L6.22064 10.2746C6.0823 10.1361 6.00897 9.96464 6.00064 9.76014C5.9923 9.5558 6.06564 9.37605 6.22064 9.22089C6.36564 9.07605 6.5413 9.00364 6.74764 9.00364C6.95397 9.00364 7.12964 9.07605 7.27464 9.22089L11.3476 13.2786L15.4206 9.22089C15.5591 9.08239 15.7306 9.00897 15.9351 9.00064C16.1396 8.9923 16.3195 9.06572 16.4746 9.22089C16.6195 9.36572 16.6919 9.5413 16.6919 9.74764C16.6919 9.95414 16.6195 10.1298 16.4746 10.2746L11.9804 14.7689C11.8867 14.8626 11.788 14.9286 11.6841 14.9669C11.5803 15.0054 11.4681 15.0246 11.3476 15.0246Z" fill="#0B7176"/>
</g>
</svg>
