<svg width="16" height="16" viewBox="0 0 16 16" fill="none" xmlns="http://www.w3.org/2000/svg">
<mask id="mask0_605_16862" style="mask-type:alpha" maskUnits="userSpaceOnUse" x="0" y="0" width="16" height="16">
<rect width="16" height="16" fill="#D9D9D9"/>
</mask>
<g mask="url(#mask0_605_16862)">
<path d="M9.65024 7.99984L4.75024 3.09984C4.58357 2.93317 4.50301 2.73595 4.50857 2.50817C4.51413 2.28039 4.60024 2.08317 4.7669 1.9165C4.93357 1.74984 5.13079 1.6665 5.35857 1.6665C5.58635 1.6665 5.78357 1.74984 5.95024 1.9165L11.0669 7.04984C11.2002 7.18317 11.3002 7.33317 11.3669 7.49984C11.4336 7.6665 11.4669 7.83317 11.4669 7.99984C11.4669 8.1665 11.4336 8.33317 11.3669 8.49984C11.3002 8.6665 11.2002 8.8165 11.0669 8.94984L5.93357 14.0832C5.7669 14.2498 5.57246 14.3304 5.35024 14.3248C5.12801 14.3193 4.93357 14.2332 4.7669 14.0665C4.60024 13.8998 4.5169 13.7026 4.5169 13.4748C4.5169 13.2471 4.60024 13.0498 4.7669 12.8832L9.65024 7.99984Z" fill="#222222"/>
</g>
</svg>
