<svg width="25" height="24" viewBox="0 0 25 24" fill="none" xmlns="http://www.w3.org/2000/svg">
<path d="M21.655 13.4607C21.7742 13.4607 21.8771 13.4607 22 13.4607C21.9769 13.5123 21.9648 13.5469 21.9468 13.5781C21.2353 14.8201 20.5223 16.0611 19.8133 17.3045C19.7655 17.3884 19.7133 17.4162 19.6188 17.4161C16.3078 17.4138 12.9967 17.4142 9.68563 17.4141C9.66385 17.4141 9.64207 17.4141 9.60169 17.4141C9.62302 17.3657 9.63632 17.3262 9.65667 17.2906C10.3651 16.0533 11.0752 14.8168 11.7811 13.5781C11.8313 13.49 11.8858 13.4564 11.9871 13.4583C12.3181 13.4646 12.6493 13.4607 12.9804 13.4607C13.0352 13.4607 13.0899 13.4607 13.1738 13.4607C12.8172 12.5216 12.4675 11.6004 12.107 10.651C10.5845 13.3079 9.07702 15.9387 7.56766 18.5727C6.05159 18.5727 4.53737 18.5727 3 18.5727C6.35752 12.7127 9.70574 6.86889 13.0683 1C14.6518 5.16714 16.2244 9.30593 17.8031 13.4607C19.0809 13.4607 20.3598 13.4607 21.655 13.4607Z" fill="#010101"/>
<path d="M21.4811 23.1453C21.5342 23.2851 21.5824 23.4132 21.6423 23.5721C21.5706 23.5586 21.5248 23.5544 21.4816 23.5413C20.5113 23.2466 19.5413 22.9509 18.5712 22.6557C17.9017 22.452 17.2326 22.247 16.5618 22.0476C16.4632 22.0183 16.405 21.9738 16.3674 21.8738C15.9683 20.8127 15.5641 19.7535 15.1618 18.6936C15.1508 18.6645 15.1466 18.6328 15.1367 18.592C15.1911 18.5881 15.2336 18.5824 15.2761 18.5824C16.7161 18.582 18.1562 18.5819 19.5962 18.5822C19.7475 18.5823 19.7485 18.5832 19.8 18.7189C20.3589 20.1904 20.9175 21.6619 21.4811 23.1453Z" fill="url(#paint0_linear_1005_19756)"/>
<defs>
<linearGradient id="paint0_linear_1005_19756" x1="18.3895" y1="18.582" x2="18.3895" y2="23.5721" gradientUnits="userSpaceOnUse">
<stop stop-color="#17A5A9"/>
<stop offset="1" stop-color="#8CD8BE"/>
</linearGradient>
</defs>
</svg>
