<svg width="32" height="32" viewBox="0 0 32 32" fill="none" xmlns="http://www.w3.org/2000/svg">
<mask id="mask0_605_20253" style="mask-type:alpha" maskUnits="userSpaceOnUse" x="0" y="0" width="32" height="32">
<rect width="32" height="32" fill="#D9D9D9"/>
</mask>
<g mask="url(#mask0_605_20253)">
<path d="M22.6663 9.33317H20.9997C20.7163 9.33317 20.4788 9.23728 20.287 9.0455C20.0955 8.85373 19.9997 8.61617 19.9997 8.33284C19.9997 8.04928 20.0955 7.81184 20.287 7.6205C20.4788 7.42895 20.7163 7.33317 20.9997 7.33317H22.6663V5.6665C22.6663 5.38317 22.7622 5.14573 22.954 4.95417C23.1458 4.76239 23.3833 4.6665 23.6667 4.6665C23.9502 4.6665 24.1877 4.76239 24.379 4.95417C24.5706 5.14573 24.6663 5.38317 24.6663 5.6665V7.33317H26.333C26.6163 7.33317 26.8538 7.42906 27.0453 7.62084C27.2371 7.81262 27.333 8.05017 27.333 8.3335C27.333 8.61706 27.2371 8.8545 27.0453 9.04584C26.8538 9.23739 26.6163 9.33317 26.333 9.33317H24.6663V10.9998C24.6663 11.2832 24.5705 11.5207 24.3787 11.7125C24.1869 11.9041 23.9493 11.9998 23.666 11.9998C23.3825 11.9998 23.145 11.9041 22.9537 11.7125C22.7621 11.5207 22.6663 11.2832 22.6663 10.9998V9.33317ZM15.9997 23.2818L10.7073 25.5535C9.90401 25.8971 9.14079 25.8323 8.41767 25.3592C7.69456 24.8861 7.33301 24.2167 7.33301 23.3512V7.07684C7.33301 6.41395 7.56901 5.8465 8.04101 5.3745C8.51301 4.9025 9.08045 4.6665 9.74334 4.6665H16.8713C17.2329 4.6665 17.5041 4.82506 17.685 5.14217C17.8657 5.45928 17.88 5.78962 17.728 6.13317C17.5862 6.48428 17.4849 6.8355 17.424 7.18684C17.3633 7.53795 17.333 7.92006 17.333 8.33317C17.333 9.90762 17.8428 11.2824 18.8623 12.4575C19.8821 13.6328 21.1501 14.3375 22.6663 14.5715C22.8303 14.5988 22.9773 14.6159 23.1073 14.6228C23.2373 14.6297 23.3638 14.6332 23.4867 14.6332C23.8133 14.6416 24.0916 14.7518 24.3213 14.9638C24.5513 15.1758 24.6663 15.4383 24.6663 15.7512V23.3512C24.6663 24.2167 24.3048 24.8861 23.5817 25.3592C22.8586 25.8323 22.0953 25.8971 21.292 25.5535L15.9997 23.2818Z" fill="#FFA432"/>
</g>
</svg>
