<svg width="32" height="33" viewBox="0 0 32 33" fill="none" xmlns="http://www.w3.org/2000/svg">
<mask id="mask0_1005_17458" style="mask-type:luminance" maskUnits="userSpaceOnUse" x="0" y="0" width="32" height="33">
<path d="M32 0.375H0V32.375H32V0.375Z" fill="white"/>
</mask>
<g mask="url(#mask0_1005_17458)">
<path d="M11.5586 27.2877C11.5586 27.049 11.7522 26.8555 11.9909 26.8555H23.469C23.7077 26.8555 23.9012 27.049 23.9012 27.2877V30.9114C23.9012 31.1501 23.7077 31.3437 23.469 31.3437H11.9909C11.7522 31.3437 11.5586 31.1501 11.5586 30.9114V27.2877Z" fill="#E5E5E5"/>
<path d="M12.8405 6.25422C12.8405 7.71492 11.6563 8.89906 10.1956 8.89906C8.73491 8.89906 7.55078 7.71492 7.55078 6.25422C7.55078 4.7935 8.73491 3.60938 10.1956 3.60938C11.6563 3.60938 12.8405 4.7935 12.8405 6.25422Z" fill="#53C6CC"/>
<path d="M6.40648 25.8581C6.95147 26.5955 7.03429 28.6232 7.00758 29.5449V30.1861C6.76525 29.4048 5.10054 28.6004 4.44287 28.3427C3.43895 27.9493 4.16236 26.0585 3.88185 25.1368C3.60134 24.2151 2.35906 23.574 1.87818 21.8108C1.3973 20.0476 1.9984 18.2843 2.35906 18.645C2.71973 19.0056 2.35906 19.3663 3.04031 19.8471C3.72156 20.3281 4.48295 21.1295 4.76347 22.8126C5.04398 24.4957 5.72523 24.9365 6.40648 25.8581Z" fill="#2FF1FA"/>
<path d="M8.44756 26.9212C7.64609 27.6586 7.12514 28.5643 6.96484 28.925C6.96484 26.9881 7.14116 22.9861 7.84647 22.4731C8.72808 21.832 8.8483 19.1872 9.48947 18.586C10.1306 17.9849 10.8519 16.2217 11.3329 17.3839C11.8137 18.546 11.3729 20.6297 10.6115 21.3511C9.85013 22.0724 9.48947 22.6335 9.48947 23.3547C9.48947 24.0761 9.4494 25.9996 8.44756 26.9212Z" fill="#53C6CC"/>
<path d="M4.88059 21.2243C4.14632 23.4332 4.48008 23.9018 5.41461 25.0399C5.96318 25.532 6.6845 26.654 6.96502 27.7761C8.16721 26.0129 8.95245 23.5002 7.75093 21.9606C6.54939 20.421 7.55066 19.0821 7.48392 17.8102C7.41716 16.5383 6.28238 16.2706 5.54811 17.3416C4.81384 18.4127 5.61486 19.0152 4.88059 21.2243Z" fill="#46E9F1"/>
<path d="M21.0452 3.0932C21.213 2.92343 21.4867 2.92187 21.6565 3.08973L29.5653 10.9093C29.735 11.0772 29.7366 11.3508 29.5687 11.5206L16.8555 24.3789C16.6876 24.5487 16.4139 24.5503 16.2442 24.3824L8.33538 16.5628C8.16561 16.395 8.16406 16.1213 8.33191 15.9514L21.0452 3.0932Z" fill="white"/>
<path fill-rule="evenodd" clip-rule="evenodd" d="M20.9841 3.02902C21.1856 2.82529 21.5141 2.82344 21.7178 3.02486L29.6266 10.8444C29.8303 11.0459 29.8321 11.3743 29.6308 11.578L16.9175 24.4363C16.7161 24.64 16.3877 24.6419 16.1839 24.4404L8.27511 16.6209C8.07139 16.4194 8.06952 16.091 8.27095 15.8873L20.9841 3.02902ZM21.5962 3.14781C21.4604 3.01353 21.2414 3.01478 21.1071 3.15058L8.39391 16.0089C8.25963 16.1446 8.26086 16.3636 8.39668 16.4979L16.3055 24.3176C16.4413 24.4517 16.6603 24.4506 16.7945 24.3148L29.5078 11.4564C29.6421 11.3206 29.6408 11.1017 29.505 10.9674L21.5962 3.14781Z" fill="#53C6CC"/>
<path d="M16.6994 3.05225C16.7864 2.82991 17.0371 2.7202 17.2595 2.80716L27.6169 6.85899C27.8393 6.94597 27.949 7.19671 27.862 7.41903L21.2745 24.2584C21.1875 24.4808 20.9368 24.5905 20.7144 24.5035L10.3569 20.4517C10.1346 20.3648 10.0249 20.114 10.1119 19.8917L16.6994 3.05225Z" fill="white"/>
<path fill-rule="evenodd" clip-rule="evenodd" d="M16.6194 3.02129C16.7238 2.7545 17.0247 2.62283 17.2915 2.72719L27.649 6.77902C27.9158 6.88339 28.0474 7.18428 27.9431 7.45107L21.3556 24.2905C21.2512 24.5573 20.9502 24.6889 20.6835 24.5846L10.326 20.5328C10.0592 20.4283 9.92752 20.1275 10.0319 19.8607L16.6194 3.02129ZM17.2284 2.88823C17.0506 2.81864 16.85 2.90642 16.7804 3.08429L10.1929 19.9237C10.1233 20.1015 10.2111 20.3022 10.389 20.3717L20.7465 24.4235C20.9243 24.4932 21.125 24.4054 21.1945 24.2275L27.782 7.38809C27.8516 7.21022 27.7638 7.00962 27.586 6.94004L17.2284 2.88823Z" fill="#0B7176"/>
<path fill-rule="evenodd" clip-rule="evenodd" d="M23.4847 9.4906C24.0655 9.71778 24.7205 9.43117 24.9477 8.85043C25.1748 8.26969 24.8882 7.61475 24.3075 7.38757C23.7268 7.16039 23.0718 7.44699 22.8446 8.02773C22.6174 8.60847 22.9041 9.26342 23.4847 9.4906ZM23.4218 9.65162C24.0915 9.9136 24.8467 9.58309 25.1086 8.91343C25.3706 8.24376 25.0402 7.48852 24.3705 7.22655C23.7007 6.96457 22.9455 7.29508 22.6836 7.96474C22.4216 8.63441 22.7522 9.38965 23.4218 9.65162Z" fill="#53C6CC"/>
<path d="M24.6183 10.1652C24.3563 10.8349 23.601 11.1654 22.9314 10.9034C22.2617 10.6414 21.9311 9.88618 22.1931 9.21652C22.4551 8.54686 23.2104 8.21635 23.8801 8.47832C24.5497 8.7403 24.8803 9.49554 24.6183 10.1652ZM19.0314 3.49609L21.373 4.41206L14.4705 22.0566L12.1289 21.1406L19.0314 3.49609Z" fill="#53C6CC"/>
<path fill-rule="evenodd" clip-rule="evenodd" d="M5.96896 20.7252C6.02067 20.0482 6.13523 19.3853 6.22529 18.9805L6.39407 19.018C6.30553 19.416 6.19236 20.0708 6.14137 20.7383C6.09009 21.4097 6.10302 22.0795 6.25724 22.5158C6.30409 22.6484 6.35561 22.7857 6.40942 22.9291C6.81592 24.012 7.35314 25.4435 6.99499 27.8283L6.82399 27.8025C7.17532 25.4633 6.65227 24.0689 6.24748 22.9899C6.19351 22.8459 6.14163 22.7076 6.09421 22.5734C5.92694 22.1 5.91754 21.3985 5.96896 20.7252Z" fill="#44C9D0"/>
<path d="M3.63686 27.16C3.60872 27.0012 3.73091 26.8555 3.89224 26.8555H9.2807C9.44332 26.8555 9.56584 27.0034 9.53551 27.1632L8.72694 31.4238H4.39208L3.63686 27.16Z" fill="#0B7176"/>
<path d="M7.34663 11.1C7.34663 12.0074 6.5931 12.7431 5.66355 12.7431C4.73402 12.7431 3.98047 12.0074 3.98047 11.1C3.98047 10.1926 4.73402 9.45703 5.66355 9.45703C6.5931 9.45703 7.34663 10.1926 7.34663 11.1Z" fill="#2FF1FA"/>
<path fill-rule="evenodd" clip-rule="evenodd" d="M6.86406 10.766L4.99605 11.9668L4.35938 10.9384L4.72692 10.7108L5.13215 11.3654L6.63031 10.4023L6.86406 10.766Z" fill="white"/>
<path fill-rule="evenodd" clip-rule="evenodd" d="M-0.03125 31.4184C-0.03125 31.3708 0.00745678 31.332 0.0552041 31.332H31.9135C31.9613 31.332 31.9999 31.3708 31.9999 31.4184C31.9999 31.4662 31.9613 31.5049 31.9135 31.5049H0.0552041C0.00745678 31.5049 -0.03125 31.4662 -0.03125 31.4184Z" fill="#0B7176"/>
<path fill-rule="evenodd" clip-rule="evenodd" d="M19.1016 31.1625C19.1202 30.5868 19.0658 29.6069 18.7292 29.0179C18.7243 29.0092 18.7192 29.0005 18.7142 28.9918C18.6391 28.8616 18.5612 28.7359 18.4823 28.6086C18.059 27.9252 17.6073 27.1964 17.4068 25.4914C17.2274 23.967 16.8484 19.607 16.6464 17.2053C16.6449 17.1881 16.6444 17.1711 16.6446 17.1541C16.6482 16.9004 16.8382 16.6839 17.0966 16.6978C17.9326 16.7426 19.0659 17.1649 19.2501 18.6389C19.3252 19.2389 19.3916 19.8647 19.4556 20.4674C19.6307 22.1184 19.7874 23.5949 20.0516 23.8885C20.0877 23.9285 20.1296 23.9636 20.1758 23.9942C20.4994 24.2084 21.0368 24.204 21.2939 24.169L24.4196 16.0742C25.2879 17.0894 27.3289 19.4804 27.5854 20.1216C27.7712 20.586 27.7416 20.6871 27.684 20.8849C27.6421 21.0285 27.5854 21.223 27.5854 21.6444C27.5854 22.6462 27.5854 24.2893 27.0645 25.2911C26.5436 26.2929 26.0226 28.0962 26.0226 31.3822H19.0899C19.0949 31.3188 19.099 31.2448 19.1016 31.1625Z" fill="#96EBEF"/>
<path fill-rule="evenodd" clip-rule="evenodd" d="M10.2345 4.27734C10.3538 4.27734 10.4506 4.37411 10.4506 4.49348V4.68316C10.9385 4.68892 11.3322 5.08621 11.3322 5.57547H10.9C10.9 5.32135 10.6939 5.11536 10.4398 5.11536H10.0742C9.79516 5.11536 9.56899 5.34154 9.56899 5.62054C9.56899 5.89955 9.79516 6.12573 10.0742 6.12573H10.4398C10.9327 6.12573 11.3322 6.52526 11.3322 7.0181C11.3322 7.50736 10.9385 7.90465 10.4506 7.91041V8.10009C10.4506 8.21946 10.3538 8.31622 10.2345 8.31622C10.1151 8.31622 10.0183 8.21946 10.0183 8.10009V7.91047H9.93893C9.49588 7.91047 9.13672 7.55132 9.13672 7.10827H9.56899C9.56899 7.31259 9.73462 7.47821 9.93893 7.47821H10.4398C10.6939 7.47821 10.9 7.27221 10.9 7.0181C10.9 6.764 10.6939 6.55801 10.4398 6.55801H10.0742C9.55643 6.55801 9.13672 6.13829 9.13672 5.62054C9.13672 5.12155 9.52659 4.71361 10.0183 4.68473V4.49348C10.0183 4.37411 10.1151 4.27734 10.2345 4.27734Z" fill="white"/>
</g>
</svg>
