<svg width="118" height="118" viewBox="0 0 118 118" fill="none" xmlns="http://www.w3.org/2000/svg">
<rect x="4.5" y="4.5" width="109" height="109" rx="54.5" fill="#F0F9F8"/>
<rect x="4.5" y="4.5" width="109" height="109" rx="54.5" stroke="#0C959B" stroke-width="9"/>
<mask id="mask0_812_15546" style="mask-type:luminance" maskUnits="userSpaceOnUse" x="27" y="27" width="64" height="64">
<path d="M91 27H27V91H91V27Z" fill="white"/>
</mask>
<g mask="url(#mask0_812_15546)">
<path d="M50.1133 80.8195C50.1133 80.3421 50.5005 79.9551 50.9779 79.9551H73.9341C74.4115 79.9551 74.7985 80.3421 74.7985 80.8195V88.0669C74.7985 88.5443 74.4115 88.9315 73.9341 88.9315H50.9779C50.5005 88.9315 50.1133 88.5443 50.1133 88.0669V80.8195Z" fill="#E5E5E5"/>
<path d="M52.6771 38.7584C52.6771 41.6798 50.3087 44.0481 47.3873 44.0481C44.4659 44.0481 42.0977 41.6798 42.0977 38.7584C42.0977 35.837 44.4659 33.4688 47.3873 33.4688C50.3087 33.4688 52.6771 35.837 52.6771 38.7584Z" fill="#53C6CC"/>
<path d="M39.811 77.9643C40.901 79.4391 41.0666 83.4945 41.0132 85.3379V86.6203C40.5286 85.0576 37.1991 83.4489 35.8838 82.9335C33.8759 82.1467 35.3228 78.3651 34.7617 76.5217C34.2007 74.6783 31.7162 73.396 30.7544 69.8696C29.7927 66.3432 30.9949 62.8166 31.7162 63.538C32.4375 64.2593 31.7162 64.9806 33.0787 65.9423C34.4412 66.9042 35.9639 68.507 36.525 71.8732C37.086 75.2394 38.4485 76.1211 39.811 77.9643Z" fill="#2FF1FA"/>
<path d="M43.899 80.0905C42.2961 81.5653 41.2542 83.3767 40.9336 84.098C40.9336 80.2243 41.2862 72.2202 42.6968 71.1943C44.4601 69.912 44.7005 64.6224 45.9829 63.42C47.2652 62.2179 48.7078 58.6915 49.6697 61.0158C50.6314 63.34 49.7497 67.5075 48.2269 68.9503C46.7042 70.3928 45.9829 71.515 45.9829 72.9575C45.9829 74.4003 45.9027 78.2473 43.899 80.0905Z" fill="#53C6CC"/>
<path d="M36.7651 68.6947C35.2965 73.1126 35.9641 74.0498 37.8331 76.3258C38.9303 77.3101 40.3729 79.5542 40.9339 81.7982C43.3383 78.2718 44.9088 73.2466 42.5058 70.1673C40.1027 67.0881 42.1052 64.4103 41.9717 61.8665C41.8382 59.3227 39.5687 58.7873 38.1001 60.9293C36.6316 63.0714 38.2336 64.2765 36.7651 68.6947Z" fill="#46E9F1"/>
<path d="M69.0943 32.4325C69.4299 32.0929 69.9773 32.0898 70.3169 32.4256L86.1345 48.0647C86.4739 48.4005 86.4771 48.9477 86.1413 49.2873L60.715 75.0038C60.3792 75.3434 59.8318 75.3466 59.4924 75.0109L43.6747 59.3716C43.3351 59.036 43.332 58.4886 43.6677 58.149L69.0943 32.4325Z" fill="white"/>
<path fill-rule="evenodd" clip-rule="evenodd" d="M68.9722 32.31C69.3752 31.9025 70.032 31.8988 70.4395 32.3017L86.2571 47.9408C86.6646 48.3437 86.6682 49.0005 86.2654 49.408L60.8389 75.1245C60.4361 75.532 59.7792 75.5358 59.3718 75.1328L43.5541 59.4938C43.1467 59.0908 43.143 58.4339 43.5458 58.0265L68.9722 32.31ZM70.1963 32.5476C69.9247 32.279 69.4867 32.2815 69.2182 32.5531L43.7917 58.2697C43.5232 58.5412 43.5256 58.9792 43.7973 59.2478L59.615 74.8871C59.8865 75.1554 60.3245 75.1531 60.5929 74.8815L86.0194 49.1648C86.288 48.8932 86.2855 48.4553 86.0139 48.1868L70.1963 32.5476Z" fill="#53C6CC"/>
<path d="M60.3968 32.3506C60.5709 31.9059 61.0722 31.6865 61.517 31.8604L82.2319 39.9641C82.6767 40.138 82.896 40.6395 82.7221 41.0842L69.5471 74.7629C69.373 75.2077 68.8717 75.427 68.4269 75.2532L47.7119 67.1495C47.2673 66.9756 47.0478 66.4741 47.2218 66.0295L60.3968 32.3506Z" fill="white"/>
<path fill-rule="evenodd" clip-rule="evenodd" d="M60.2348 32.2887C60.4437 31.7551 61.0455 31.4917 61.579 31.7005L82.2941 39.8041C82.8277 40.0129 83.0909 40.6146 82.8823 41.1482L69.7073 74.8271C69.4984 75.3607 68.8966 75.624 68.363 75.4153L47.6481 67.3116C47.1145 67.1028 46.8511 66.5012 47.0598 65.9674L60.2348 32.2887ZM61.453 32.0225C61.0973 31.8834 60.6961 32.0589 60.557 32.4147L47.3819 66.0935C47.2427 66.4491 47.4183 66.8504 47.774 66.9895L68.4891 75.0932C68.8447 75.2325 69.246 75.0569 69.3851 74.7011L82.5602 41.0223C82.6992 40.6665 82.5237 40.2653 82.168 40.1262L61.453 32.0225Z" fill="#0B7176"/>
<path fill-rule="evenodd" clip-rule="evenodd" d="M73.9675 45.2312C75.1291 45.6856 76.439 45.1123 76.8934 43.9509C77.3476 42.7894 76.7744 41.4795 75.613 41.0251C74.4516 40.5708 73.1417 41.144 72.6873 42.3055C72.2329 43.4669 72.8062 44.7768 73.9675 45.2312ZM73.8417 45.5532C75.181 46.0772 76.6914 45.4162 77.2153 44.0769C77.7393 42.7375 77.0784 41.227 75.7391 40.7031C74.3995 40.1791 72.8891 40.8402 72.3652 42.1795C71.8412 43.5188 72.5024 45.0293 73.8417 45.5532Z" fill="#53C6CC"/>
<path d="M76.2327 46.5843C75.7087 47.9236 74.1981 48.5846 72.8588 48.0607C71.5195 47.5368 70.8584 46.0263 71.3823 44.6869C71.9063 43.3476 73.4169 42.6866 74.7562 43.2106C76.0955 43.7345 76.7566 45.245 76.2327 46.5843ZM65.0589 33.2461L69.742 35.078L55.937 70.367L51.2539 68.5351L65.0589 33.2461Z" fill="#53C6CC"/>
<path fill-rule="evenodd" clip-rule="evenodd" d="M38.934 67.6985C39.0374 66.3444 39.2666 65.0186 39.4467 64.209L39.7842 64.2841C39.6071 65.08 39.3808 66.3897 39.2788 67.7247C39.1763 69.0674 39.2021 70.407 39.5106 71.2797C39.6043 71.5449 39.7073 71.8194 39.8149 72.1062C40.6279 74.2721 41.7024 77.1351 40.9861 81.9046L40.6441 81.8531C41.3467 77.1747 40.3006 74.3858 39.4911 72.2278C39.3831 71.9398 39.2794 71.6633 39.1845 71.3949C38.85 70.4481 38.8312 69.045 38.934 67.6985Z" fill="#44C9D0"/>
<path d="M34.2718 80.5641C34.2155 80.2465 34.4599 79.9551 34.7825 79.9551H45.5594C45.8847 79.9551 46.1297 80.251 46.0691 80.5705L44.4519 89.0917H35.7822L34.2718 80.5641Z" fill="#0B7176"/>
<path d="M41.6972 48.4578C41.6972 50.2727 40.1901 51.744 38.331 51.744C36.4719 51.744 34.9648 50.2727 34.9648 48.4578C34.9648 46.6431 36.4719 45.1719 38.331 45.1719C40.1901 45.1719 41.6972 46.6431 41.6972 48.4578Z" fill="#2FF1FA"/>
<path fill-rule="evenodd" clip-rule="evenodd" d="M40.7281 47.778L36.9921 50.1798L35.7188 48.1228L36.4538 47.6678L37.2643 48.977L40.2606 47.0508L40.7281 47.778Z" fill="white"/>
<path fill-rule="evenodd" clip-rule="evenodd" d="M26.9375 89.0908C26.9375 88.9954 27.0149 88.918 27.1104 88.918H90.8271C90.9227 88.918 90.9999 88.9954 90.9999 89.0908C90.9999 89.1863 90.9227 89.2638 90.8271 89.2638H27.1104C27.0149 89.2638 26.9375 89.1863 26.9375 89.0908Z" fill="#0B7176"/>
<path fill-rule="evenodd" clip-rule="evenodd" d="M65.2033 88.5731C65.2404 87.4215 65.1316 85.4619 64.4583 84.2838C64.4485 84.2663 64.4385 84.2491 64.4285 84.2316C64.2783 83.9713 64.1223 83.7198 63.9647 83.4653C63.118 82.0985 62.2147 80.6408 61.8136 77.2308C61.4548 74.1821 60.6968 65.4621 60.2928 60.6587C60.2898 60.6243 60.2887 60.5902 60.2892 60.5563C60.2964 60.0488 60.6764 59.6159 61.1933 59.6436C62.8652 59.7332 65.1318 60.5778 65.5002 63.5259C65.6504 64.7259 65.7831 65.9775 65.9111 67.1828C66.2614 70.4848 66.5748 73.4378 67.1032 74.0251C67.1753 74.1051 67.2592 74.1753 67.3516 74.2365C67.9988 74.6649 69.0736 74.6561 69.5877 74.5861L75.8392 58.3965C77.5758 60.4268 81.6579 65.2089 82.1707 66.4912C82.5424 67.4201 82.4833 67.6223 82.3681 68.0178C82.2842 68.305 82.1707 68.6941 82.1707 69.5367C82.1707 71.5404 82.1708 74.8266 81.129 76.8302C80.0871 78.8338 79.0452 82.4404 79.0452 89.0124H65.1798C65.1898 88.8857 65.198 88.7376 65.2033 88.5731Z" fill="#96EBEF"/>
<path fill-rule="evenodd" clip-rule="evenodd" d="M47.4689 34.8008C47.7077 34.8008 47.9012 34.9943 47.9012 35.2331V35.6124C48.877 35.6239 49.6644 36.4185 49.6644 37.397H48.8C48.8 36.8888 48.3878 36.4768 47.8797 36.4768H47.1483C46.5903 36.4768 46.138 36.9292 46.138 37.4872C46.138 38.0452 46.5903 38.4975 47.1483 38.4975H47.8797C48.8655 38.4975 49.6644 39.2966 49.6644 40.2823C49.6644 41.2608 48.877 42.0554 47.9012 42.0669V42.4463C47.9012 42.685 47.7077 42.8785 47.4689 42.8785C47.2302 42.8785 47.0367 42.685 47.0367 42.4463V42.067H46.8779C45.9918 42.067 45.2734 41.3487 45.2734 40.4626H46.138C46.138 40.8713 46.4692 41.2025 46.8779 41.2025H47.8797C48.3878 41.2025 48.8 40.7905 48.8 40.2823C48.8 39.7741 48.3878 39.3621 47.8797 39.3621H47.1483C46.1129 39.3621 45.2734 38.5227 45.2734 37.4872C45.2734 36.4892 46.0532 35.6733 47.0367 35.6155V35.2331C47.0367 34.9943 47.2302 34.8008 47.4689 34.8008Z" fill="white"/>
</g>
</svg>
