<svg width="47" height="46" viewBox="0 0 47 46" fill="none" xmlns="http://www.w3.org/2000/svg">
<rect x="3.33398" y="3" width="40" height="40" rx="20" fill="#CBF0E9"/>
<rect x="3.33398" y="3" width="40" height="40" rx="20" stroke="#E3F8F6" stroke-width="6"/>
<mask id="mask0_812_15491" style="mask-type:alpha" maskUnits="userSpaceOnUse" x="11" y="11" width="25" height="24">
<rect x="11.334" y="11" width="24" height="24" fill="#D9D9D9"/>
</mask>
<g mask="url(#mask0_812_15491)">
<path d="M16.6417 32.5C16.1366 32.5 15.709 32.325 15.359 31.975C15.009 31.625 14.834 31.1974 14.834 30.6923V17.3078C14.834 16.8026 15.009 16.375 15.359 16.025C15.709 15.675 16.1366 15.5 16.6417 15.5H18.0262V14.1538C18.0262 13.9346 18.0997 13.7516 18.2465 13.6048C18.3933 13.4581 18.5763 13.3848 18.7955 13.3848C19.0148 13.3848 19.1978 13.4581 19.3445 13.6048C19.4913 13.7516 19.5647 13.9346 19.5647 14.1538V15.5H27.1417V14.1348C27.1417 13.9219 27.2135 13.7437 27.357 13.6C27.5007 13.4565 27.6789 13.3848 27.8917 13.3848C28.1046 13.3848 28.2827 13.4565 28.4262 13.6C28.5699 13.7437 28.6417 13.9219 28.6417 14.1348V15.5H30.0262C30.5314 15.5 30.959 15.675 31.309 16.025C31.659 16.375 31.834 16.8026 31.834 17.3078V30.6923C31.834 31.1974 31.659 31.625 31.309 31.975C30.959 32.325 30.5314 32.5 30.0262 32.5H16.6417ZM16.6417 31H30.0262C30.1032 31 30.1737 30.9679 30.2377 30.9038C30.3019 30.8398 30.334 30.7693 30.334 30.6923V21.3078H16.334V30.6923C16.334 30.7693 16.3661 30.8398 16.4302 30.9038C16.4942 30.9679 16.5647 31 16.6417 31ZM16.334 19.8078H30.334V17.3078C30.334 17.2308 30.3019 17.1603 30.2377 17.0963C30.1737 17.0321 30.1032 17 30.0262 17H16.6417C16.5647 17 16.4942 17.0321 16.4302 17.0963C16.3661 17.1603 16.334 17.2308 16.334 17.3078V19.8078ZM23.334 25.077C23.0892 25.077 22.8805 24.9908 22.708 24.8183C22.5357 24.6459 22.4495 24.4373 22.4495 24.1923C22.4495 23.9474 22.5357 23.7388 22.708 23.5663C22.8805 23.3939 23.0892 23.3078 23.334 23.3078C23.5788 23.3078 23.7875 23.3939 23.96 23.5663C24.1323 23.7388 24.2185 23.9474 24.2185 24.1923C24.2185 24.4373 24.1323 24.6459 23.96 24.8183C23.7875 24.9908 23.5788 25.077 23.334 25.077ZM19.334 25.077C19.0892 25.077 18.8805 24.9908 18.708 24.8183C18.5357 24.6459 18.4495 24.4373 18.4495 24.1923C18.4495 23.9474 18.5357 23.7388 18.708 23.5663C18.8805 23.3939 19.0892 23.3078 19.334 23.3078C19.5788 23.3078 19.7875 23.3939 19.96 23.5663C20.1323 23.7388 20.2185 23.9474 20.2185 24.1923C20.2185 24.4373 20.1323 24.6459 19.96 24.8183C19.7875 24.9908 19.5788 25.077 19.334 25.077ZM27.334 25.077C27.0892 25.077 26.8805 24.9908 26.708 24.8183C26.5357 24.6459 26.4495 24.4373 26.4495 24.1923C26.4495 23.9474 26.5357 23.7388 26.708 23.5663C26.8805 23.3939 27.0892 23.3078 27.334 23.3078C27.5788 23.3078 27.7875 23.3939 27.96 23.5663C28.1323 23.7388 28.2185 23.9474 28.2185 24.1923C28.2185 24.4373 28.1323 24.6459 27.96 24.8183C27.7875 24.9908 27.5788 25.077 27.334 25.077ZM23.334 29C23.0892 29 22.8805 28.9138 22.708 28.7413C22.5357 28.5689 22.4495 28.3603 22.4495 28.1155C22.4495 27.8705 22.5357 27.6618 22.708 27.4895C22.8805 27.317 23.0892 27.2308 23.334 27.2308C23.5788 27.2308 23.7875 27.317 23.96 27.4895C24.1323 27.6618 24.2185 27.8705 24.2185 28.1155C24.2185 28.3603 24.1323 28.5689 23.96 28.7413C23.7875 28.9138 23.5788 29 23.334 29ZM19.334 29C19.0892 29 18.8805 28.9138 18.708 28.7413C18.5357 28.5689 18.4495 28.3603 18.4495 28.1155C18.4495 27.8705 18.5357 27.6618 18.708 27.4895C18.8805 27.317 19.0892 27.2308 19.334 27.2308C19.5788 27.2308 19.7875 27.317 19.96 27.4895C20.1323 27.6618 20.2185 27.8705 20.2185 28.1155C20.2185 28.3603 20.1323 28.5689 19.96 28.7413C19.7875 28.9138 19.5788 29 19.334 29ZM27.334 29C27.0892 29 26.8805 28.9138 26.708 28.7413C26.5357 28.5689 26.4495 28.3603 26.4495 28.1155C26.4495 27.8705 26.5357 27.6618 26.708 27.4895C26.8805 27.317 27.0892 27.2308 27.334 27.2308C27.5788 27.2308 27.7875 27.317 27.96 27.4895C28.1323 27.6618 28.2185 27.8705 28.2185 28.1155C28.2185 28.3603 28.1323 28.5689 27.96 28.7413C27.7875 28.9138 27.5788 29 27.334 29Z" fill="#0B7176"/>
</g>
</svg>
