<svg width="16" height="16" viewBox="0 0 16 16" fill="none" xmlns="http://www.w3.org/2000/svg">
<mask id="mask0_812_15249" style="mask-type:alpha" maskUnits="userSpaceOnUse" x="0" y="0" width="16" height="16">
<rect width="16" height="16" fill="#D9D9D9"/>
</mask>
<g mask="url(#mask0_812_15249)">
<path d="M7.99935 14.3337C6.8729 14.3337 5.9524 14.1721 5.23785 13.849C4.52329 13.526 4.16602 13.1085 4.16602 12.5965C4.16602 12.3939 4.23463 12.2038 4.37185 12.026C4.50896 11.8482 4.70402 11.6879 4.95702 11.5452C5.07413 11.4683 5.2019 11.442 5.34035 11.4663C5.47879 11.4907 5.58652 11.5614 5.66352 11.6785C5.7404 11.7956 5.7639 11.9223 5.73402 12.0587C5.70413 12.195 5.63063 12.3016 5.51352 12.3785C5.44085 12.4042 5.3714 12.4362 5.30518 12.4747C5.23885 12.5131 5.19929 12.5515 5.18652 12.59C5.29674 12.7892 5.62474 12.9629 6.17052 13.1112C6.71618 13.2595 7.32579 13.3337 7.99935 13.3337C8.6729 13.3337 9.28252 13.2595 9.82818 13.1112C10.374 12.9629 10.702 12.7892 10.8122 12.59C10.7994 12.5515 10.7599 12.5131 10.6935 12.4747C10.6273 12.4362 10.5578 12.4042 10.4852 12.3785C10.3681 12.3016 10.2946 12.195 10.2647 12.0587C10.2348 11.9223 10.2583 11.7956 10.3352 11.6785C10.4122 11.5614 10.5199 11.4907 10.6583 11.4663C10.7968 11.442 10.9246 11.4683 11.0417 11.5452C11.2947 11.6879 11.4897 11.8482 11.6268 12.026C11.7641 12.2038 11.8327 12.3939 11.8327 12.5965C11.8327 13.1085 11.4754 13.526 10.7608 13.849C10.0463 14.1721 9.12579 14.3337 7.99935 14.3337ZM7.99935 12.0427C7.87879 12.0427 7.75829 12.0215 7.63785 11.9792C7.51729 11.9368 7.40574 11.8755 7.30318 11.7952C6.08185 10.8106 5.17035 9.84994 4.56868 8.91316C3.9669 7.97638 3.66602 7.05588 3.66602 6.15166C3.66602 5.40977 3.79702 4.75977 4.05902 4.20166C4.32102 3.64355 4.65924 3.17621 5.07368 2.79966C5.48824 2.42321 5.95302 2.14033 6.46802 1.95099C6.9829 1.76166 7.49335 1.66699 7.99935 1.66699C8.50535 1.66699 9.01579 1.76166 9.53068 1.95099C10.0457 2.14033 10.5105 2.42321 10.925 2.79966C11.3395 3.17621 11.6777 3.64355 11.9397 4.20166C12.2017 4.75977 12.3327 5.40977 12.3327 6.15166C12.3327 7.05588 12.0318 7.97638 11.43 8.91316C10.8283 9.84994 9.91685 10.8106 8.69552 11.7952C8.59296 11.8755 8.4814 11.9368 8.36085 11.9792C8.2404 12.0215 8.1199 12.0427 7.99935 12.0427ZM7.99935 7.26316C8.33179 7.26316 8.61574 7.14649 8.85118 6.91316C9.08674 6.67983 9.20452 6.39477 9.20452 6.05799C9.20452 5.72555 9.08674 5.4416 8.85118 5.20616C8.61574 4.9706 8.33179 4.85283 7.99935 4.85283C7.67113 4.85283 7.38824 4.9706 7.15068 5.20616C6.91302 5.4416 6.79418 5.72555 6.79418 6.05799C6.79418 6.39477 6.91302 6.67983 7.15068 6.91316C7.38824 7.14649 7.67113 7.26316 7.99935 7.26316Z" fill="white"/>
</g>
</svg>
