<svg width="46" height="46" viewBox="0 0 46 46" fill="none" xmlns="http://www.w3.org/2000/svg">
<rect x="3" y="3" width="40" height="40" rx="20" fill="#CBF0E9"/>
<rect x="3" y="3" width="40" height="40" rx="20" stroke="#E3F8F6" stroke-width="6"/>
<mask id="mask0_812_15454" style="mask-type:alpha" maskUnits="userSpaceOnUse" x="11" y="11" width="24" height="24">
<rect x="11" y="11" width="24" height="24" fill="#D9D9D9"/>
</mask>
<g mask="url(#mask0_812_15454)">
<path d="M15.4997 29.6918V22.2398L14.2305 23.2266C14.0548 23.3547 13.8689 23.4053 13.6727 23.3783C13.4767 23.3515 13.3146 23.2502 13.1862 23.0746C13.0581 22.8989 13.0084 22.713 13.0372 22.5168C13.0661 22.3206 13.1632 22.1585 13.3287 22.0303L21.8902 15.4631C22.0542 15.3426 22.2308 15.2521 22.42 15.1918C22.609 15.1316 22.8022 15.1016 22.9997 15.1016C23.1972 15.1016 23.3889 15.1316 23.5747 15.1918C23.7606 15.2521 23.9356 15.3426 24.0997 15.4631L32.6862 22.0303C32.8516 22.1585 32.9462 22.3206 32.97 22.5168C32.9937 22.713 32.9414 22.8989 32.8132 23.0746C32.6849 23.2399 32.5227 23.3361 32.3267 23.3631C32.1306 23.3899 31.9497 23.3392 31.7842 23.2111L30.4997 22.2398V29.6918C30.4997 30.1905 30.3232 30.6165 29.97 30.9698C29.6167 31.323 29.1907 31.4996 28.692 31.4996H17.3075C16.8088 31.4996 16.3828 31.323 16.0295 30.9698C15.6763 30.6165 15.4997 30.1905 15.4997 29.6918ZM17.3075 29.9996H28.692C28.7818 29.9996 28.8556 29.9707 28.9132 29.9131C28.9709 29.8554 28.9997 29.7816 28.9997 29.6918V21.0996L23.1825 16.6688C23.1312 16.624 23.0702 16.6016 22.9997 16.6016C22.9292 16.6016 22.8683 16.624 22.817 16.6688L16.9997 21.0996V29.6918C16.9997 29.7816 17.0286 29.8554 17.0862 29.9131C17.1439 29.9707 17.2177 29.9996 17.3075 29.9996ZM18.9997 25.8841C19.2446 25.8841 19.4532 25.7979 19.6257 25.6256C19.7981 25.4531 19.8842 25.2444 19.8842 24.9996C19.8842 24.7547 19.7981 24.5461 19.6257 24.3736C19.4532 24.2012 19.2446 24.1151 18.9997 24.1151C18.7549 24.1151 18.5462 24.2012 18.3737 24.3736C18.2014 24.5461 18.1152 24.7547 18.1152 24.9996C18.1152 25.2444 18.2014 25.4531 18.3737 25.6256C18.5462 25.7979 18.7549 25.8841 18.9997 25.8841ZM22.9997 25.8841C23.2446 25.8841 23.4532 25.7979 23.6257 25.6256C23.7981 25.4531 23.8842 25.2444 23.8842 24.9996C23.8842 24.7547 23.7981 24.5461 23.6257 24.3736C23.4532 24.2012 23.2446 24.1151 22.9997 24.1151C22.7549 24.1151 22.5462 24.2012 22.3737 24.3736C22.2014 24.5461 22.1152 24.7547 22.1152 24.9996C22.1152 25.2444 22.2014 25.4531 22.3737 25.6256C22.5462 25.7979 22.7549 25.8841 22.9997 25.8841ZM26.9997 25.8841C27.2446 25.8841 27.4532 25.7979 27.6257 25.6256C27.7981 25.4531 27.8842 25.2444 27.8842 24.9996C27.8842 24.7547 27.7981 24.5461 27.6257 24.3736C27.4532 24.2012 27.2446 24.1151 26.9997 24.1151C26.7549 24.1151 26.5462 24.2012 26.3737 24.3736C26.2014 24.5461 26.1152 24.7547 26.1152 24.9996C26.1152 25.2444 26.2014 25.4531 26.3737 25.6256C26.5462 25.7979 26.7549 25.8841 26.9997 25.8841ZM17.3075 29.9996H16.9997H28.9997H17.3075Z" fill="#0B7176"/>
</g>
</svg>
