<svg width="24" height="24" viewBox="0 0 24 24" fill="none" xmlns="http://www.w3.org/2000/svg">
<mask id="mask0_812_15369" style="mask-type:alpha" maskUnits="userSpaceOnUse" x="0" y="0" width="24" height="24">
<rect width="24" height="24" fill="#D9D9D9"/>
</mask>
<g mask="url(#mask0_812_15369)">
<path d="M4.5 15.3077V6C4.5 4.777 5.09358 3.88792 6.28075 3.33275C7.46792 2.77758 9.37433 2.5 12 2.5C14.6872 2.5 16.6089 2.76992 17.7653 3.30975C18.9218 3.84942 19.5 4.74617 19.5 6V15.3077C19.5 16.2013 19.1913 16.9567 18.574 17.574C17.9567 18.1913 17.2013 18.5 16.3077 18.5L17.6635 19.4018C17.8442 19.5224 17.9028 19.6908 17.8395 19.9068C17.776 20.1228 17.6321 20.2307 17.4078 20.2307H6.59225C6.36792 20.2307 6.224 20.1228 6.1605 19.9068C6.09717 19.6908 6.15583 19.5224 6.3365 19.4018L7.69225 18.5C6.79875 18.5 6.04333 18.1913 5.426 17.574C4.80867 16.9567 4.5 16.2013 4.5 15.3077ZM6 10.5H18V6.76925H6V10.5ZM12 15.8077C12.3653 15.8077 12.6746 15.6811 12.9277 15.4277C13.1811 15.1746 13.3077 14.8653 13.3077 14.5C13.3077 14.1347 13.1811 13.8254 12.9277 13.5723C12.6746 13.3189 12.3653 13.1923 12 13.1923C11.6347 13.1923 11.3254 13.3189 11.0723 13.5723C10.8189 13.8254 10.6923 14.1347 10.6923 14.5C10.6923 14.8653 10.8189 15.1746 11.0723 15.4277C11.3254 15.6811 11.6347 15.8077 12 15.8077Z" fill="white"/>
</g>
</svg>
