<svg width="18" height="18" viewBox="0 0 18 18" fill="none" xmlns="http://www.w3.org/2000/svg">
<mask id="mask0_812_15376" style="mask-type:alpha" maskUnits="userSpaceOnUse" x="0" y="0" width="18" height="18">
<rect width="18" height="18" fill="#D9D9D9"/>
</mask>
<g mask="url(#mask0_812_15376)">
<path d="M8.10316 10.8577L6.76909 16.621C6.74122 16.7528 6.67341 16.8593 6.56566 16.9405C6.45803 17.0218 6.33447 17.0624 6.19497 17.0624C6.00759 17.0624 5.85691 16.9939 5.74291 16.8569C5.62891 16.7199 5.59216 16.5615 5.63266 16.3816L7.64603 6.35767L5.86328 7.07017V8.9928C5.86328 9.1523 5.80947 9.28592 5.70184 9.39367C5.59409 9.5013 5.46041 9.55511 5.30078 9.55511C5.14116 9.55511 5.00753 9.5013 4.89991 9.39367C4.79216 9.28592 4.73828 9.1523 4.73828 8.9928V6.7773C4.73828 6.6418 4.77534 6.51948 4.84947 6.41036C4.92347 6.30111 5.02203 6.21767 5.14516 6.16005L8.29497 4.82148C8.46997 4.74648 8.64478 4.70155 8.81941 4.68667C8.99391 4.6718 9.16141 4.68842 9.32191 4.73655C9.48253 4.78455 9.63134 4.8588 9.76834 4.9593C9.90534 5.0598 10.0215 5.19036 10.1167 5.35098L10.7512 6.3633C10.9378 6.65667 11.1489 6.92786 11.3844 7.17686C11.62 7.42586 11.8777 7.64123 12.1575 7.82298C12.3613 7.95661 12.5815 8.07011 12.818 8.16349C13.0547 8.25673 13.296 8.32692 13.5422 8.37405C13.694 8.40192 13.8188 8.47086 13.9164 8.58086C14.014 8.69098 14.0628 8.82586 14.0628 8.98549C14.0628 9.14511 14.0058 9.27561 13.8918 9.37698C13.778 9.47848 13.6412 9.51911 13.4816 9.49886C12.7623 9.38448 12.115 9.13811 11.5395 8.75973C10.964 8.38136 10.4652 7.90417 10.043 7.32817L9.46628 10.1971L10.8667 11.5947C10.9321 11.6649 10.9811 11.7408 11.0137 11.8225C11.0465 11.9043 11.0628 11.9904 11.0628 12.0807V16.4999C11.0628 16.6595 11.009 16.7932 10.9012 16.9008C10.7936 17.0085 10.66 17.0624 10.5003 17.0624C10.3407 17.0624 10.2071 17.0085 10.0995 16.9008C9.99172 16.7932 9.93784 16.6595 9.93784 16.4999V12.4254L8.10316 10.8577ZM10.1253 4.00961C9.74172 4.00961 9.41503 3.87473 9.14528 3.60498C8.87553 3.33523 8.74066 3.00855 8.74066 2.62492C8.74066 2.2413 8.87553 1.91461 9.14528 1.64486C9.41503 1.37511 9.74172 1.24023 10.1253 1.24023C10.509 1.24023 10.8357 1.37511 11.1054 1.64486C11.3752 1.91461 11.51 2.2413 11.51 2.62492C11.51 3.00855 11.3752 3.33523 11.1054 3.60498C10.8357 3.87473 10.509 4.00961 10.1253 4.00961Z" fill="#76767F"/>
</g>
</svg>
