<svg width="24" height="24" viewBox="0 0 24 24" fill="none" xmlns="http://www.w3.org/2000/svg">
<mask id="mask0_812_15286" style="mask-type:alpha" maskUnits="userSpaceOnUse" x="0" y="0" width="24" height="24">
<rect width="24" height="24" fill="#D9D9D9"/>
</mask>
<g mask="url(#mask0_812_15286)">
<path d="M4.30775 19.5C3.81058 19.5 3.385 19.323 3.031 18.969C2.677 18.615 2.5 18.1894 2.5 17.6923V6.30775C2.5 5.81058 2.677 5.385 3.031 5.031C3.385 4.677 3.81058 4.5 4.30775 4.5H14.9135C15.1997 4.5 15.4708 4.56317 15.727 4.6895C15.983 4.81583 16.1938 4.9905 16.3595 5.2135L20.677 10.9057C20.9243 11.2301 21.048 11.5948 21.048 12C21.048 12.4052 20.9243 12.7699 20.677 13.0942L16.3595 18.7865C16.1938 19.0095 15.983 19.1842 15.727 19.3105C15.4708 19.4368 15.1997 19.5 14.9135 19.5H4.30775Z" fill="#0B7176"/>
</g>
</svg>
