<svg width="20" height="20" viewBox="0 0 20 20" fill="none" xmlns="http://www.w3.org/2000/svg">
<mask id="mask0_812_15221" style="mask-type:alpha" maskUnits="userSpaceOnUse" x="0" y="0" width="20" height="20">
<rect width="20" height="20" fill="#D9D9D9"/>
</mask>
<g mask="url(#mask0_812_15221)">
<path d="M3.81109 11.7737C3.64776 11.6498 3.56685 11.4872 3.56838 11.2858C3.57005 11.0844 3.65262 10.919 3.81609 10.7897C3.93137 10.7054 4.05796 10.6633 4.19588 10.6633C4.33366 10.6633 4.46026 10.7054 4.57567 10.7897L9.84005 14.8635C9.8881 14.9008 9.94151 14.9195 10.0003 14.9195C10.059 14.9195 10.1124 14.9008 10.1605 14.8635L15.4248 10.7897C15.5403 10.7054 15.6669 10.6633 15.8046 10.6633C15.9425 10.6633 16.0691 10.7054 16.1844 10.7897C16.3479 10.919 16.4305 11.0844 16.4321 11.2858C16.4337 11.4872 16.3528 11.6498 16.1894 11.7737L10.9248 15.8601C10.6461 16.075 10.3379 16.1824 10.0003 16.1824C9.66262 16.1824 9.35442 16.075 9.07567 15.8601L3.81109 11.7737ZM9.07567 12.1647L4.70067 8.7641C4.31276 8.46285 4.1188 8.06813 4.1188 7.57993C4.1188 7.0916 4.31276 6.69681 4.70067 6.39556L9.07567 2.99494C9.35442 2.78021 9.66262 2.67285 10.0003 2.67285C10.3379 2.67285 10.6461 2.78021 10.9248 2.99494L15.2998 6.39556C15.6878 6.69681 15.8817 7.0916 15.8817 7.57993C15.8817 8.06813 15.6878 8.46285 15.2998 8.7641L10.9248 12.1647C10.6461 12.3794 10.3379 12.4868 10.0003 12.4868C9.66262 12.4868 9.35442 12.3794 9.07567 12.1647Z" fill="white"/>
</g>
</svg>
