<svg width="20" height="20" viewBox="0 0 20 20" fill="none" xmlns="http://www.w3.org/2000/svg">
<mask id="mask0_812_15240" style="mask-type:alpha" maskUnits="userSpaceOnUse" x="0" y="0" width="20" height="20">
<rect width="20" height="20" fill="#D9D9D9"/>
</mask>
<g mask="url(#mask0_812_15240)">
<path d="M10.0007 14.2621C10.9569 14.2621 11.7675 13.9296 12.4325 13.2646C13.0975 12.5996 13.43 11.7889 13.43 10.8327C13.43 9.87643 13.0975 9.06581 12.4325 8.40081C11.7675 7.73581 10.9569 7.40331 10.0007 7.40331C9.0444 7.40331 8.23378 7.73581 7.56878 8.40081C6.90378 9.06581 6.57128 9.87643 6.57128 10.8327C6.57128 11.7889 6.90378 12.5996 7.56878 13.2646C8.23378 13.9296 9.0444 14.2621 10.0007 14.2621ZM10.0007 13.0123C9.38523 13.0123 8.86815 12.8028 8.4494 12.3839C8.03051 11.9652 7.82107 11.4481 7.82107 10.8327C7.82107 10.2173 8.03051 9.70018 8.4494 9.28143C8.86815 8.86254 9.38523 8.6531 10.0007 8.6531C10.6161 8.6531 11.1332 8.86254 11.5519 9.28143C11.9708 9.70018 12.1802 10.2173 12.1802 10.8327C12.1802 11.4481 11.9708 11.9652 11.5519 12.3839C11.1332 12.8028 10.6161 13.0123 10.0007 13.0123ZM3.59044 17.0827C3.16947 17.0827 2.81315 16.9368 2.52148 16.6452C2.22982 16.3535 2.08398 15.9972 2.08398 15.5762V6.08914C2.08398 5.66817 2.22982 5.31185 2.52148 5.02018C2.81315 4.72852 3.16947 4.58268 3.59044 4.58268H6.13523L7.22503 3.40164C7.36183 3.25095 7.52718 3.13233 7.72107 3.04581C7.91496 2.95928 8.11926 2.91602 8.33398 2.91602H11.6673C11.882 2.91602 12.0863 2.95928 12.2802 3.04581C12.4741 3.13233 12.6395 3.25095 12.7763 3.40164L13.8661 4.58268H16.4109C16.8318 4.58268 17.1882 4.72852 17.4798 5.02018C17.7715 5.31185 17.9173 5.66817 17.9173 6.08914V15.5762C17.9173 15.9972 17.7715 16.3535 17.4798 16.6452C17.1882 16.9368 16.8318 17.0827 16.4109 17.0827H3.59044Z" fill="#F0F9F8"/>
</g>
</svg>
