<svg width="47" height="46" viewBox="0 0 47 46" fill="none" xmlns="http://www.w3.org/2000/svg">
<rect x="3.66602" y="3" width="40" height="40" rx="20" fill="#CBF0E9"/>
<rect x="3.66602" y="3" width="40" height="40" rx="20" stroke="#E3F8F6" stroke-width="6"/>
<mask id="mask0_812_15513" style="mask-type:alpha" maskUnits="userSpaceOnUse" x="11" y="11" width="25" height="24">
<rect x="11.666" y="11" width="24" height="24" fill="#D9D9D9"/>
</mask>
<g mask="url(#mask0_812_15513)">
<path d="M18.9176 30.5C18.1539 30.5 17.5045 30.2327 16.9693 29.698C16.434 29.1632 16.1663 28.5138 16.1663 27.75H14.7183C14.5058 27.75 14.3276 27.6781 14.1838 27.5343C14.0401 27.3904 13.9683 27.2122 13.9683 26.9998C13.9683 26.7871 14.0401 26.609 14.1838 26.4655C14.3276 26.3218 14.5058 26.25 14.7183 26.25H16.6818C16.9138 25.8692 17.2263 25.5657 17.6193 25.3395C18.0121 25.1132 18.4445 25 18.9163 25C19.3881 25 19.8206 25.1132 20.2136 25.3395C20.6064 25.5657 20.9189 25.8692 21.1511 26.25H25.5471L27.6953 17H17.6471C17.4346 17 17.2565 16.9281 17.1128 16.7842C16.969 16.6404 16.8971 16.4622 16.8971 16.2497C16.8971 16.0371 16.969 15.859 17.1128 15.7155C17.2565 15.5718 17.4346 15.5 17.6471 15.5H28.4356C28.7304 15.5 28.9682 15.6138 29.1491 15.8415C29.3297 16.069 29.3848 16.3251 29.3143 16.6098L28.7028 19.25H30.3008C30.5871 19.25 30.8583 19.314 31.1143 19.442C31.3705 19.5702 31.5814 19.7472 31.7471 19.973L33.5836 22.4098C33.7477 22.6238 33.8531 22.8523 33.8998 23.0953C33.9466 23.3381 33.9483 23.5884 33.9048 23.8463L33.2683 27.027C33.2246 27.241 33.119 27.415 32.9513 27.549C32.7836 27.683 32.5931 27.75 32.3798 27.75H31.5508C31.5508 28.5128 31.2836 29.1618 30.7491 29.697C30.2146 30.2323 29.5656 30.5 28.8021 30.5C28.0386 30.5 27.3891 30.2327 26.8538 29.698C26.3186 29.1632 26.0511 28.5138 26.0511 27.75H21.6663C21.6663 28.5128 21.3991 29.1618 20.8646 29.697C20.3301 30.2323 19.6811 30.5 18.9176 30.5ZM27.5721 24.125H32.3106L32.4491 23.4173L30.4548 20.75H28.3586L27.5721 24.125ZM25.6933 25.6615L25.8396 25.009C25.9369 24.574 26.0606 24.0415 26.2106 23.4115C26.2734 23.15 26.3314 22.9083 26.3846 22.6865C26.4377 22.4647 26.481 22.2653 26.5143 22.0885L26.6606 21.436C26.7581 21.001 26.8818 20.4685 27.0318 19.8385C27.1816 19.2085 27.3053 18.676 27.4028 18.241L27.5491 17.5885L27.6953 17L25.5471 26.25L25.6933 25.6615ZM13.6856 24.1615C13.4757 24.1615 13.2999 24.0896 13.1581 23.9458C13.0162 23.8019 12.9453 23.6238 12.9453 23.4113C12.9453 23.1986 13.0171 23.0205 13.1608 22.877C13.3045 22.7333 13.4826 22.6615 13.6951 22.6615H17.1856C17.3981 22.6615 17.5761 22.7334 17.7198 22.8773C17.8636 23.0211 17.9356 23.1993 17.9356 23.412C17.9356 23.6245 17.8636 23.8026 17.7198 23.9462C17.5761 24.0898 17.3981 24.1615 17.1856 24.1615H13.6856ZM15.6856 20.5885C15.4731 20.5885 15.295 20.5166 15.1513 20.3727C15.0075 20.2289 14.9356 20.0508 14.9356 19.8383C14.9356 19.6256 15.0075 19.4474 15.1513 19.3038C15.295 19.1603 15.4731 19.0885 15.6856 19.0885H20.1856C20.3981 19.0885 20.5761 19.1604 20.7198 19.3042C20.8636 19.4481 20.9356 19.6262 20.9356 19.8387C20.9356 20.0514 20.8636 20.2295 20.7198 20.373C20.5761 20.5167 20.3981 20.5885 20.1856 20.5885H15.6856ZM18.9163 29C19.2638 29 19.559 28.8785 19.8018 28.6355C20.0448 28.3927 20.1663 28.0975 20.1663 27.75C20.1663 27.4025 20.0448 27.1073 19.8018 26.8645C19.559 26.6215 19.2638 26.5 18.9163 26.5C18.5688 26.5 18.2736 26.6215 18.0308 26.8645C17.7878 27.1073 17.6663 27.4025 17.6663 27.75C17.6663 28.0975 17.7878 28.3927 18.0308 28.6355C18.2736 28.8785 18.5688 29 18.9163 29ZM28.8011 29C29.1484 29 29.4436 28.8785 29.6866 28.6355C29.9296 28.3927 30.0511 28.0975 30.0511 27.75C30.0511 27.4025 29.9296 27.1073 29.6866 26.8645C29.4436 26.6215 29.1484 26.5 28.8011 26.5C28.4536 26.5 28.1583 26.6215 27.9153 26.8645C27.6723 27.1073 27.5508 27.4025 27.5508 27.75C27.5508 28.0975 27.6723 28.3927 27.9153 28.6355C28.1583 28.8785 28.4536 29 28.8011 29Z" fill="#0B7176"/>
</g>
</svg>
