<svg width="78" height="65" viewBox="0 0 78 65" fill="none" xmlns="http://www.w3.org/2000/svg">
<path fill-rule="evenodd" clip-rule="evenodd" d="M78 10.1518C66.3174 15.7918 60.4761 22.4186 60.4761 30.0325C65.4556 30.5965 69.5732 32.594 72.829 36.0249C76.0848 39.4559 77.7127 43.4273 77.7127 47.9393C77.7127 52.7332 76.1327 56.7751 72.9727 60.0651C69.8126 63.355 65.8386 65 61.0507 65C55.6881 65 51.0439 62.8616 47.1177 58.5846C43.1916 54.3076 41.2286 49.1143 41.2286 43.0043C41.2286 24.6745 51.6662 10.3399 72.5417 0L78 10.1518ZM36.7714 10.1518C24.993 15.7918 19.1039 22.4186 19.1039 30.0325C24.1792 30.5965 28.3446 32.594 31.6004 36.0249C34.8563 39.4559 36.4841 43.4273 36.4841 47.9393C36.4841 52.7332 34.8802 56.7751 31.6723 60.0651C28.4643 63.355 24.4664 65 19.6785 65C14.3159 65 9.69561 62.8616 5.81736 58.5846C1.9391 54.3076 0 49.1143 0 43.0043C0 24.6745 10.3897 10.3399 31.1695 0L36.7714 10.1518Z" fill="#0B7176"/>
</svg>
